<svg width="26" height="26" viewBox="0 0 26 26" fill="none" xmlns="http://www.w3.org/2000/svg">
<g clip-path="url(#clip0_18_513)">
<path d="M8.39146 12.9685C8.39146 10.6453 10.269 8.76153 12.5857 8.76153C14.9024 8.76153 16.7809 10.6453 16.7809 12.9685C16.7809 15.2917 14.9024 17.1755 12.5857 17.1755C10.269 17.1755 8.39146 15.2917 8.39146 12.9685ZM6.1236 12.9685C6.1236 16.5475 9.01667 19.4487 12.5857 19.4487C16.1547 19.4487 19.0478 16.5475 19.0478 12.9685C19.0478 9.3895 16.1547 6.48832 12.5857 6.48832C9.01667 6.48832 6.1236 9.3895 6.1236 12.9685ZM17.7935 6.23138C17.7933 6.5309 17.8818 6.82373 18.0476 7.07284C18.2135 7.32194 18.4492 7.51614 18.7252 7.63087C19.0011 7.74561 19.3047 7.77572 19.5977 7.7174C19.8906 7.65909 20.1598 7.51496 20.371 7.30325C20.5823 7.09155 20.7263 6.82176 20.7847 6.52802C20.843 6.23428 20.8133 5.92978 20.6991 5.65301C20.5849 5.37625 20.3914 5.13965 20.1431 4.97315C19.8949 4.80664 19.6029 4.71771 19.3042 4.71759H19.3036C18.9033 4.71778 18.5193 4.87731 18.2362 5.16114C17.953 5.44497 17.7938 5.8299 17.7935 6.23138ZM7.50147 23.2409C6.27451 23.1848 5.60762 22.9799 5.16444 22.8067C4.57688 22.5774 4.15766 22.3042 3.71689 21.8628C3.27613 21.4214 3.00329 21.0014 2.77556 20.4122C2.60279 19.968 2.39842 19.299 2.34264 18.0686C2.28163 16.7384 2.26945 16.3388 2.26945 12.9686C2.26945 9.59849 2.28264 9.2 2.34264 7.86864C2.39852 6.63825 2.6044 5.9706 2.77556 5.52507C3.0043 4.93586 3.27673 4.51547 3.71689 4.07347C4.15706 3.63146 4.57588 3.35786 5.16444 3.12949C5.60742 2.95625 6.27451 2.7513 7.50147 2.69537C8.828 2.63418 9.22648 2.62197 12.5857 2.62197C15.9449 2.62197 16.3438 2.63519 17.6714 2.69537C18.8984 2.7514 19.5642 2.95786 20.0085 3.12949C20.596 3.35786 21.0152 3.63207 21.456 4.07347C21.8968 4.51486 22.1686 4.93586 22.3974 5.52507C22.5701 5.96929 22.7745 6.63825 22.8303 7.86864C22.8913 9.2 22.9035 9.59849 22.9035 12.9686C22.9035 16.3388 22.8913 16.7373 22.8303 18.0686C22.7744 19.299 22.569 19.9678 22.3974 20.4122C22.1686 21.0014 21.8962 21.4218 21.456 21.8628C21.0159 22.3038 20.596 22.5774 20.0085 22.8067C19.5655 22.98 18.8984 23.1849 17.6714 23.2409C16.3449 23.3021 15.9464 23.3143 12.5857 23.3143C9.22497 23.3143 8.8276 23.3021 7.50147 23.2409ZM7.39727 0.424983C6.05755 0.486165 5.14209 0.69919 4.3426 1.01116C3.51463 1.33332 2.81371 1.76553 2.1133 2.46679C1.41288 3.16806 0.982988 3.87205 0.661725 4.70234C0.35063 5.50457 0.1382 6.42209 0.0771896 7.76556C0.0151721 9.11116 0.000976562 9.54135 0.000976562 12.9685C0.000976562 16.3957 0.0151721 16.8259 0.0771896 18.1715C0.1382 19.5151 0.35063 20.4325 0.661725 21.2347C0.982988 22.0645 1.41298 22.7693 2.1133 23.4703C2.81361 24.1712 3.51463 24.6028 4.3426 24.9259C5.1436 25.2379 6.05755 25.4509 7.39727 25.5121C8.73981 25.5732 9.16809 25.5885 12.5857 25.5885C16.0033 25.5885 16.4323 25.5743 17.7741 25.5121C19.1139 25.4509 20.0288 25.2379 20.8288 24.9259C21.6563 24.6028 22.3577 24.1715 23.0581 23.4703C23.7585 22.769 24.1875 22.0645 24.5097 21.2347C24.8208 20.4325 25.0342 19.515 25.0942 18.1715C25.1552 16.8249 25.1694 16.3957 25.1694 12.9685C25.1694 9.54135 25.1552 9.11116 25.0942 7.76556C25.0332 6.42199 24.8208 5.50407 24.5097 4.70234C24.1875 3.87256 23.7574 3.16917 23.0581 2.46679C22.3588 1.76442 21.6563 1.33332 20.8298 1.01116C20.0288 0.69919 19.1138 0.485155 17.7751 0.424983C16.4333 0.363801 16.0043 0.348557 12.5867 0.348557C9.1691 0.348557 8.73981 0.362792 7.39727 0.424983Z" fill="#257611"/>
</g>
<defs>
<clipPath id="clip0_18_513">
<rect width="25.1694" height="25.2399" fill="white" transform="translate(0 0.348549)"/>
</clipPath>
</defs>
</svg>
